/* XPM */
static char * led_on_xpm[] = {
"15 15 67 1",
" 	c None",
".	c #7A0000",
"+	c #FF0B00",
"@	c #FF1100",
"#	c #FF1900",
"$	c #FF1F00",
"%	c #FF2401",
"&	c #FF2600",
"*	c #FF2500",
"=	c #FF2601",
"-	c #FF2400",
";	c #FF1E00",
">	c #FF1901",
",	c #FF0B01",
"'	c #FFFFFF",
")	c #FF2F01",
"!	c #FF2900",
"~	c #FF2200",
"{	c #FF1A00",
"]	c #FF1200",
"^	c #FF3D01",
"/	c #FF3C01",
"(	c #FF3D00",
"_	c #FF3801",
":	c #FF3200",
"<	c #FF2B00",
"[	c #FF2301",
"}	c #FF1800",
"|	c #FF1E01",
"1	c #FF3201",
"2	c #FF3C00",
"3	c #FF4200",
"4	c #FF4700",
"5	c #FF4901",
"6	c #FF4701",
"7	c #FF4201",
"8	c #FF2901",
"9	c #FF2E00",
"0	c #FF4D01",
"a	c #FF5301",
"b	c #FF5600",
"c	c #FF4100",
"d	c #FF3800",
"e	c #FF3100",
"f	c #FF5100",
"g	c #FF5B00",
"h	c #FF6101",
"i	c #FF5B01",
"j	c #FF3101",
"k	c #FF4A01",
"l	c #FF5501",
"m	c #FF6100",
"n	c #FF6700",
"o	c #FF5201",
"p	c #FF5300",
"q	c #FF2300",
"r	c #FF2E01",
"s	c #FF5200",
"t	c #FF4D00",
"u	c #FF4101",
"v	c #FF3301",
"w	c #FF2B01",
"x	c #FF3300",
"y	c #FF1101",
"z	c #FF2F00",
"A	c #FF1A01",
"B	c #FF0A00",
"...............",
".+@#$%&*=-;>@,.",
".@''''''')!~{].",
".>''''^/(_:<[}.",
".|'1234567/18|.",
".-9_70aba0cd9%.",
".&e(4fghia4^j=.",
".&e/klmnhbk2e&.",
".=j(4oimgp6^1*.",
".qrd30sbstu_r[.",
".;!v2u6k63/1!;.",
".}[w1d^/^dxwq#.",
".y{[!9eeez8qAy.",
".+@#;-=*=%$#@B.",
"..............."};
