/* XPM */
static char * led_off_xpm[] = {
"15 15 136 2",
"  	c None",
". 	c #000000",
"+ 	c #4A0000",
"@ 	c #400100",
"# 	c #350100",
"$ 	c #2B0101",
"% 	c #210100",
"& 	c #1C0001",
"* 	c #1D0000",
"= 	c #230101",
"- 	c #360101",
"; 	c #420101",
"> 	c #4D0001",
", 	c #590001",
"' 	c #480001",
") 	c #FFFFFF",
"! 	c #250001",
"~ 	c #320001",
"{ 	c #3C0000",
"] 	c #490100",
"^ 	c #570001",
"/ 	c #450100",
"( 	c #060100",
"_ 	c #080100",
": 	c #160000",
"< 	c #210001",
"[ 	c #2E0001",
"} 	c #3B0101",
"| 	c #470001",
"1 	c #550001",
"2 	c #2D0100",
"3 	c #210101",
"4 	c #160100",
"5 	c #0D0000",
"6 	c #0E0100",
"7 	c #170100",
"8 	c #310100",
"9 	c #3D0101",
"0 	c #4A0100",
"a 	c #570000",
"b 	c #4A0101",
"c 	c #3E0101",
"d 	c #330000",
"e 	c #270101",
"f 	c #1D0101",
"g 	c #1A0000",
"h 	c #190000",
"i 	c #200101",
"j 	c #2A0101",
"k 	c #330001",
"l 	c #400001",
"m 	c #4D0101",
"n 	c #580000",
"o 	c #4F0101",
"p 	c #440001",
"q 	c #390000",
"r 	c #300101",
"s 	c #2A0000",
"t 	c #240100",
"u 	c #260000",
"v 	c #2A0001",
"w 	c #3C0001",
"x 	c #460101",
"y 	c #510100",
"z 	c #5D0001",
"A 	c #4C0100",
"B 	c #430100",
"C 	c #3A0000",
"D 	c #330100",
"E 	c #360000",
"F 	c #430000",
"G 	c #620000",
"H 	c #5D0100",
"I 	c #540000",
"J 	c #460001",
"K 	c #400101",
"L 	c #3F0000",
"M 	c #430001",
"N 	c #4D0000",
"O 	c #570101",
"P 	c #600001",
"Q 	c #6A0101",
"R 	c #660101",
"S 	c #5E0100",
"T 	c #500100",
"U 	c #4A0001",
"V 	c #4F0000",
"W 	c #520100",
"X 	c #610101",
"Y 	c #680100",
"Z 	c #710001",
"` 	c #700101",
" .	c #690000",
"..	c #630100",
"+.	c #5A0101",
"@.	c #5F0100",
"#.	c #620001",
"$.	c #720001",
"%.	c #7A0001",
"&.	c #7A0000",
"*.	c #740101",
"=.	c #6D0101",
"-.	c #6A0000",
";.	c #670000",
">.	c #640101",
",.	c #650000",
"'.	c #660000",
").	c #6B0101",
"!.	c #700000",
"~.	c #750100",
"{.	c #7C0000",
"].	c #840001",
"^.	c #850100",
"/.	c #7F0101",
"(.	c #770001",
"_.	c #730001",
":.	c #700001",
"<.	c #730100",
"[.	c #730000",
"}.	c #760101",
"|.	c #7A0100",
"1.	c #800000",
"2.	c #870000",
"3.	c #8E0000",
"4.	c #8F0001",
"5.	c #8C0100",
"6.	c #860100",
"7.	c #840000",
"8.	c #800001",
"9.	c #7E0100",
"0.	c #7F0100",
"a.	c #810101",
"b.	c #830100",
"c.	c #8C0000",
"d.	c #900000",
"e.	c #9A0000",
". . . . . . . . . . . . . . . ",
". + @ # $ % & * = $ - ; > , . ",
". ' ) ) ) ) ) ) ) ! ~ { ] ^ . ",
". / ) ) ) ) ( _ : < [ } | 1 . ",
". ' ) 2 3 4 5 6 7 = 8 9 0 a . ",
". b c d e f g h i j k l m n . ",
". o p q r s t u v d w x y z . ",
". 1 A B C # 8 D E 9 F m ^ G . ",
". H I A J K c L M J N O P Q . ",
". R S O T m U A V W , X Y Z . ",
". `  ...H +.n n +.@.#.Q $.%.. ",
". &.*.=.-.;.>.,.'.).!.~.{.].. ",
". ^./.%.(._.:.<.[.}.|.1.2.3.. ",
". 4.5.6.7.8.9.0.a.b.6.c.d.e.. ",
". . . . . . . . . . . . . . . "};
