/* XPM */
static char * play_block_xpm[] = {
"16 16 31 1",
" 	c None",
".	c #000000",
"+	c #FFFFFF",
"@	c #FFA9ED",
"#	c #FFA6ED",
"$	c #3B002F",
"%	c #290021",
"&	c #030003",
"*	c #FFBBF1",
"=	c #FFB9F0",
"-	c #FFA2EC",
";	c #FF86E6",
">	c #0D000B",
",	c #070006",
"'	c #0B0009",
")	c #FFADEE",
"!	c #FFFDFE",
"~	c #FFDFF8",
"{	c #FF4BDA",
"]	c #FFB0EF",
"^	c #FFE0F8",
"/	c #FF4FDB",
"(	c #FF1FD2",
"_	c #FF42D9",
":	c #EE00BE",
"<	c #FF46DA",
"[	c #F900C7",
"}	c #C6009E",
"|	c #DC00AF",
"1	c #CC00A3",
"2	c #D100A7",
"................",
".++++++++++++++.",
".++..++++++++++.",
".++....++++++++.",
".++.@#.$%++++++.",
".++&*=-;>,.++++.",
".++')!~{{{...++.",
".++.]^/((_{_..+.",
".++.{(((::::..+.",
".++.<([}|:...++.",
".++.<1}}...++++.",
".++.<2...++++++.",
".++....++++++++.",
".++..++++++++++.",
".++++++++++++++.",
"................"};
